{"title":"Madonna-Erotica_(Uncensored_Version)-DVDRip-XviD-1992-MVcl","uid":5734833,"size":72270163,"categoryP":"video","categoryS":"movies","magnet":"?xt=urn:btih:4ef3f0334bd803a05fda4f5f8541aaae11b770cb&amp;dn=Madonna-Erotica_%28Uncensored_Version%29-DVDRip-XviD-1992-MVcl&amp;tr=udp%3A%2F%2Ftracker.openbittorrent.com%3A80&amp;tr=udp%3A%2F%2Fopen.demonii.com%3A1337&amp;tr=udp%3A%2F%2Ftracker.coppersurfer.tk%3A6969&amp;tr=udp%3A%2F%2Fexodus.desync.com%3A6969","seeders":0,"leechers":1,"uploader":null,"files":3,"time":1280771294,"description":"General\nComplete name                    : Madonna-Erotica_(Uncensored_Version)-DVDRip-XviD-1992-MVcl.avi\nFormat                           : AVI\nFormat/Info                      : Audio Video Interleave\nFile size                        : 68.9 MiB\nDuration                         : 5mn 18s\nOverall bit rate                 : 1 813 Kbps\nWriting application              : VirtualDubMod 1.5.10.2 (build 2540/release)\nWriting library                  : VirtualDubMod build 2540/release\n\nVideo\nID                               : 0\nFormat                           : MPEG-4 Visual\nFormat profile                   : Advanced Simple@L5\nFormat settings, BVOP            : Yes\nFormat settings, QPel            : No\nFormat settings, GMC             : No warppoints\nFormat settings, Matrix          : Default (H.263)\nMuxing mode                      : Packed bitstream\nCodec ID                         : XVID\nCodec ID/Hint                    : XviD\nDuration                         : 5mn 18s\nBit rate                         : 1 692 Kbps\nWidth                            : 704 pixels\nHeight                           : 464 pixels\nDisplay aspect ratio             : 1.379\nFrame rate                       : 29.970 fps\nColor space                      : YUV\nChroma subsampling               : 4:2:0\nBit depth                        : 8 bits\nScan type                        : Progressive\nBits/(Pixel*Frame)               : 0.173\nStream size                      : 64.3 MiB (93%)\nWriting library                  : XviD 1.2.1 (UTC 2008-12-04)\n\nAudio\nID                               : 1\nFormat                           : MPEG Audio\nFormat version                   : Version 1\nFormat profile                   : Layer 3\nMode                             : Joint stereo\nMode extension                   : MS Stereo\nCodec ID                         : 55\nCodec ID/Hint                    : MP3\nDuration                         : 5mn 18s\nBit rate mode                    : Variable\nBit rate                         : 106 Kbps\nMinimum bit rate                 : 32.0 Kbps\nChannel(s)                       : 2 channels\nSampling rate                    : 48.0 KHz\nStream size                      : 4.04 MiB (6%)\nAlignment                        : Aligned on interleaves\nInterleave, duration             : 24 ms (0.72 video frame)\nInterleave, preload duration     : 384 ms\nWriting library                  : LAME3.98r\nEncoding settings                : -m j -V 5 -q 2 -lowpass 16.5 --vbr-new -b 32","torrent":{"xt":"urn:btih:4ef3f0334bd803a05fda4f5f8541aaae11b770cb","amp;dn":"Madonna-Erotica_%28Uncensored_Version%29-DVDRip-XviD-1992-MVcl","amp;tr":["udp%3A%2F%2Ftracker.openbittorrent.com%3A80","udp%3A%2F%2Fopen.demonii.com%3A1337","udp%3A%2F%2Ftracker.coppersurfer.tk%3A6969","udp%3A%2F%2Fexodus.desync.com%3A6969"],"infoHash":"4ef3f0334bd803a05fda4f5f8541aaae11b770cb","infoHashBuffer":{"type":"Buffer","data":[78,243,240,51,75,216,3,160,95,218,79,95,133,65,170,174,17,183,112,203]},"announce":[],"urlList":[]}}